PathFileType	4	(X/Y/Z)	C:/Users/opensim2020/Desktop/walking_exp_matlab/subject03_walking09_straight_04.trc																																																																																																																																											
DataRate	CameraRate	NumFrames	NumMarkers	Units	OrigDataRate	OrigDataStartFrame	OrigNumFrames																																																																																																																																							
100	100	4	47	mm	100	3745	353																																																																																																																																							
Frame#	Time	LFHD			RFHD			LBHD			RBHD			C7			T10			CLAV			STRN			RBAK			LSHO			LUPA			LELB			LFRM			LWRA			LWRB			LFIN			RSHO			RUPA			RELB			RFRM			RWRA			RWRB			RFIN			LASI			RASI			LPSI			RPSI			LTHI			LKNE			LTIB			LANK			LHEE			LTOE			RTHI			RKNE			RTIB			RANK			RHEE			RTOE			*39			*40			*41			*42			*43			*44			*45			*46		
		X1	Y1	Z1	X2	Y2	Z2	X3	Y3	Z3	X4	Y4	Z4	X5	Y5	Z5	X6	Y6	Z6	X7	Y7	Z7	X8	Y8	Z8	X9	Y9	Z9	X10	Y10	Z10	X11	Y11	Z11	X12	Y12	Z12	X13	Y13	Z13	X14	Y14	Z14	X15	Y15	Z15	X16	Y16	Z16	X17	Y17	Z17	X18	Y18	Z18	X19	Y19	Z19	X20	Y20	Z20	X21	Y21	Z21	X22	Y22	Z22	X23	Y23	Z23	X24	Y24	Z24	X25	Y25	Z25	X26	Y26	Z26	X27	Y27	Z27	X28	Y28	Z28	X29	Y29	Z29	X30	Y30	Z30	X31	Y31	Z31	X32	Y32	Z32	X33	Y33	Z33	X34	Y34	Z34	X35	Y35	Z35	X36	Y36	Z36	X37	Y37	Z37	X38	Y38	Z38	X39	Y39	Z39	X40	Y40	Z40	X41	Y41	Z41	X42	Y42	Z42	X43	Y43	Z43	X44	Y44	Z44	X45	Y45	Z45	X46	Y46	Z46	X47	Y47	Z47
																																																																																																																																														
1	0	-1438.93701	1628.98828	-1419.96765	-1442.25061	1624.06543	-1286.91821	-1565.6936	1581.55811	-1421.54907	-1564.25464	1576.48096	-1290.20032	-1596.25562	1425.45923	-1371.57715	-1642.86902	1115.48413	-1402.26587	-1475.72217	1345.73584	-1379.78259	-1439.77576	1180.01257	-1397.76758	-1652.401	1246.9751	-1286.4314	-1520.56763	1398.51245	-1531.92493	-1563.0614	1209.54797	-1615.31213	-1577.95874	1088.19983	-1636.97205	-1564.03577	959.39569	-1649.83093	-1548.92114	838.94342	-1631.36609	-1581.00098	848.49835	-1675.70618	-1571.3717	763.6936	-1673.01416	-1515.85071	1358.71472	-1218.63599	-1467.24438	1140.57324	-1158.16272	-1420.86267	1038.09473	-1152.42078	-1360.32227	915.35095	-1160.5481	-1302.2572	838.89349	-1203.24756	-1328.57568	820.37933	-1160.2478	-1280.98669	765.15961	-1171.95801	-1472.55859	946.83966	-1518.8501	-1483.06848	946.98529	-1281.07483	-1637.76904	968.21912	-1478.80396	-1641.69238	982.82764	-1329.57214	-1475.71558	646.26019	-1580.37268	-1409.35938	480.86996	-1546.90027	-1413.20166	289.52109	-1559.24268	-1375.90784	80.17429	-1536.95459	-1406.49475	36.45498	-1497.77417	-1223.78369	67.3559	-1519.42749	-1574.5199	659.25543	-1249.30481	-1590.23962	480.54102	-1285.11646	-1668.81042	303.94287	-1292.30005	-1716.83142	89.80388	-1350.60754	-1760.95227	69.05121	-1402.58411	-1577.61267	36.56562	-1387.24438	-1524.26685	1682.6554	-1366.29675	NaN	NaN	NaN	NaN	NaN	NaN	NaN	NaN	NaN	NaN	NaN	NaN	NaN	NaN	NaN	NaN	NaN	NaN	NaN	NaN	NaN
2	0.01	-1432.72986	1628.26184	-1421.12427	-1436.39746	1623.42554	-1288.11719	-1559.41699	1580.66272	-1422.97449	-1558.61707	1575.75037	-1292.11133	-1589.96497	1424.59778	-1373.28064	-1636.14648	1114.51819	-1403.8208	-1469.35461	1344.8125	-1380.77515	-1433.22217	1179.19946	-1398.58105	-1646.23572	1246.07874	-1288.08655	-1513.61365	1397.41333	-1533.25745	-1555.76648	1208.33789	-1616.68835	-1570.70544	1087.04089	-1638.51135	-1557.12439	958.21313	-1651.4176	-1542.49146	837.69073	-1632.93005	-1574.35754	847.40454	-1677.43811	-1565.09058	762.50433	-1674.70459	-1509.94604	1357.85034	-1219.84082	-1461.62805	1139.66882	-1159.1925	-1415.1731	1037.21497	-1153.41956	-1354.45349	914.61584	-1161.15417	-1296.12183	837.9566	-1204.31335	-1322.65686	819.62689	-1161.13049	-1274.99182	764.49976	-1172.75842	-1465.47986	945.41815	-1519.46179	-1477.07007	946.11377	-1281.69556	-1630.85144	967.3183	-1480.32227	-1635.41699	982.133	-1331.05115	-1469.3064	644.78558	-1580.83618	-1402.91113	479.74826	-1546.01465	-1402.36694	288.96381	-1558.57141	-1359.31433	80.88674	-1536.98145	-1388.59351	36.47201	-1497.4917	-1206.51196	70.69595	-1519.6001	-1569.95447	658.88776	-1250.21326	-1586.90369	480.26114	-1285.38916	-1666.83154	304.18756	-1292.51013	-1716.46838	90.35633	-1350.61133	-1760.72522	69.83985	-1402.73877	-1577.50024	36.46281	-1387.26086	-1518.14404	1682.01624	-1368.30469	NaN	NaN	NaN	NaN	NaN	NaN	NaN	NaN	NaN	NaN	NaN	NaN	NaN	NaN	NaN	NaN	NaN	NaN	NaN	NaN	NaN
3	0.02	-1426.50269	1627.55835	-1422.34399	-1430.45862	1622.77454	-1289.36609	-1553.10254	1579.77002	-1424.57764	-1552.177	1574.66248	-1293.14294	-1583.46753	1423.67273	-1374.86316	-1629.32959	1113.54199	-1405.45239	-1462.83142	1343.95947	-1381.91443	-1426.69763	1178.28796	-1399.27771	-1639.97168	1245.18372	-1289.8009	-1506.71277	1396.27429	-1534.68494	-1548.37524	1207.04724	-1618.07007	-1563.19177	1085.76147	-1640.02832	-1549.88757	956.88666	-1652.95374	-1535.77417	836.30304	-1634.52319	-1567.42554	846.17151	-1679.15015	-1558.47815	761.26074	-1676.43945	-1503.58362	1356.79797	-1221.06274	-1456.03589	1138.80591	-1160.29456	-1409.51135	1036.23303	-1154.41199	-1348.81116	913.62939	-1162.17822	-1290.29919	837.10254	-1204.66882	-1317.0592	818.57526	-1162.01587	-1269.31946	763.49622	-1173.59314	-1458.30444	944.33893	-1520.27124	-1471.06409	945.31348	-1282.34485	-1623.81177	966.26093	-1481.7959	-1629.00574	981.42957	-1332.59631	-1462.67993	643.41083	-1581.42859	-1396.47839	478.54407	-1545.13721	-1391.92505	288.50455	-1557.89478	-1343.57104	81.42033	-1536.75732	-1371.85889	36.63737	-1497.23425	-1190.32068	73.71358	-1519.65723	-1565.44897	658.5368	-1250.77722	-1583.43115	479.94595	-1285.68066	-1664.7052	304.3667	-1292.61157	-1716.03369	90.85277	-1350.55896	-1760.4978	70.51301	-1402.5708	-1577.4292	36.36691	-1387.30701	-1512.18384	1681.14941	-1369.59351	NaN	NaN	NaN	NaN	NaN	NaN	NaN	NaN	NaN	NaN	NaN	NaN	NaN	NaN	NaN	NaN	NaN	NaN	NaN	NaN	NaN
4	0.03	-1420.18909	1626.83862	-1423.6405	-1424.48877	1622.08081	-1290.68164	-1546.72046	1578.82104	-1426.16052	-1546.51416	1573.98669	-1295.25513	-1576.91943	1422.74097	-1376.52209	-1622.50647	1112.61829	-1407.1991	-1456.19836	1343.15088	-1383.13245	-1419.91565	1177.36951	-1400.09705	-1633.60352	1244.27173	-1291.56433	-1499.69092	1395.04883	-1536.08765	-1540.87708	1205.68628	-1619.46924	-1555.38928	1084.27795	-1641.47278	-1542.45911	955.5235	-1654.51953	-1528.80652	834.83356	-1636.09436	-1560.22583	844.90808	-1680.88037	-1551.547	759.95856	-1678.24536	-1497.53345	1355.91272	-1222.46753	-1450.15662	1137.83594	-1161.50342	-1403.8606	1035.19141	-1155.41211	-1343.4386	912.57678	-1163.09924	-1284.95215	836.01166	-1205.48828	-1311.76978	817.40765	-1162.84131	-1264.04578	762.20789	-1174.34778	-1451.07153	942.90259	-1521.00464	-1464.85974	944.48151	-1283.05139	-1616.73987	965.28918	-1483.47412	-1622.51855	980.58582	-1334.19299	-1456.03455	641.9198	-1581.63367	-1389.96643	477.32889	-1544.17712	-1381.98474	288.0722	-1557.2113	-1329.19885	82.29971	-1536.74329	-1356.46606	36.90519	-1497.01599	-1175.5072	76.29656	-1519.67529	-1561.08594	658.1759	-1251.12402	-1579.76013	479.49835	-1285.98962	-1662.34363	304.53693	-1292.66394	-1715.49109	91.38026	-1350.47412	-1760.35193	71.3011	-1402.2334	-1577.34277	36.31677	-1387.32715	-1505.87354	1681.53442	-1371.55579	NaN	NaN	NaN	NaN	NaN	NaN	NaN	NaN	NaN	NaN	NaN	NaN	NaN	NaN	NaN	NaN	NaN	NaN	NaN	NaN	NaN
